<?xml version="1.0" encoding="UTF-8"?>
<svg width="342px" height="254px" viewBox="0 0 342 254" version="1.1" xmlns="http://www.w3.org/2000/svg" xmlns:xlink="http://www.w3.org/1999/xlink">
    <!-- Generator: sketchtool 52.1 (67048) - http://www.bohemiancoding.com/sketch -->
    <title>159349F1-07CE-427E-8836-AF67BF8E0A71</title>
    <desc>Created with sketchtool.</desc>
    <defs>
        <path d="M5.65704,11.28366 C6.02766,12.8313 6.5646,14.30064 7.2621,15.62112 L13.11282,15.7815 C10.26576,22.34322 5.88636,30.82302 2.07234,38.04966 L2.21958,38.1051 L0.17118,41.97618 C5.73354,46.10718 18.52992,53.9793 32.62356,51.507 C34.29738,51.2145 35.99226,50.77494 37.6929,50.16564 L36.47772,45.47466 L40.69836,33.19038 L41.92308,33.00138 C44.70156,32.2713 45.12564,30.63582 45.6147,27.80586 L45.68364,27.11988 L49.356,31.6179 C53.75862,31.19382 56.59398,29.96694 57.71178,26.72442 C58.03668,25.78824 58.21632,24.68358 58.24872,23.38074 L50.89986,15.7338 C49.72302,14.40954 48.2076,12.03444 44.88678,10.2213 C44.39016,13.78476 42.5727,17.57952 39.78306,19.46934 C34.22286,23.2335 25.90146,19.95282 25.52688,12.99006 C25.38936,10.40274 26.28162,6.41682 27.82944,3.77244 L23.34294,2.49426 C17.05086,1.10322 11.13714,0.37134 5.81382,0.0828 C4.82976,3.6216 4.79142,7.66476 5.65704,11.28366" id="path-1"></path>
        <path d="M5.65704,11.28366 C6.02766,12.8313 6.5646,14.30064 7.2621,15.62112 L13.11282,15.7815 C10.26576,22.34322 5.88636,30.82302 2.07234,38.04966 L2.21958,38.1051 L0.17118,41.97618 C5.73354,46.10718 18.52992,53.9793 32.62356,51.507 C34.29738,51.2145 35.99226,50.77494 37.6929,50.16564 L36.47772,45.47466 L40.69836,33.19038 L41.92308,33.00138 C44.70156,32.2713 45.12564,30.63582 45.6147,27.80586 L45.68364,27.11988 L49.356,31.6179 C53.75862,31.19382 56.59398,29.96694 57.71178,26.72442 C58.03668,25.78824 58.21632,24.68358 58.24872,23.38074 L50.89986,15.7338 C49.72302,14.40954 48.2076,12.03444 44.88678,10.2213 C44.39016,13.78476 42.5727,17.57952 39.78306,19.46934 C34.22286,23.2335 25.90146,19.95282 25.52688,12.99006 C25.38936,10.40274 26.28162,6.41682 27.82944,3.77244 L23.34294,2.49426 C17.05086,1.10322 11.13714,0.37134 5.81382,0.0828 C4.82976,3.6216 4.79142,7.66476 5.65704,11.28366" id="path-3"></path>
        <path d="M5.65704,11.28366 C6.02766,12.8313 6.5646,14.30064 7.2621,15.62112 L13.11282,15.7815 C10.26576,22.34322 5.88636,30.82302 2.07234,38.04966 L2.21958,38.1051 L0.17118,41.97618 C5.73354,46.10718 18.52992,53.9793 32.62356,51.507 C34.29738,51.2145 35.99226,50.77494 37.6929,50.16564 L36.47772,45.47466 L40.69836,33.19038 L41.92308,33.00138 C44.70156,32.2713 45.12564,30.63582 45.6147,27.80586 L45.68364,27.11988 L49.356,31.6179 C53.75862,31.19382 56.59398,29.96694 57.71178,26.72442 C58.03668,25.78824 58.21632,24.68358 58.24872,23.38074 L50.89986,15.7338 C49.72302,14.40954 48.2076,12.03444 44.88678,10.2213 C44.39016,13.78476 42.5727,17.57952 39.78306,19.46934 C34.22286,23.2335 25.90146,19.95282 25.52688,12.99006 C25.38936,10.40274 26.28162,6.41682 27.82944,3.77244 L23.34294,2.49426 C17.05086,1.10322 11.13714,0.37134 5.81382,0.0828 C4.82976,3.6216 4.79142,7.66476 5.65704,11.28366" id="path-5"></path>
        <path d="M5.65704,11.28366 C6.02766,12.8313 6.5646,14.30064 7.2621,15.62112 L13.11282,15.7815 C10.26576,22.34322 5.88636,30.82302 2.07234,38.04966 L2.21958,38.1051 L0.17118,41.97618 C5.73354,46.10718 18.52992,53.9793 32.62356,51.507 C34.29738,51.2145 35.99226,50.77494 37.6929,50.16564 L36.47772,45.47466 L40.69836,33.19038 L41.92308,33.00138 C44.70156,32.2713 45.12564,30.63582 45.6147,27.80586 L45.68364,27.11988 L49.356,31.6179 C53.75862,31.19382 56.59398,29.96694 57.71178,26.72442 C58.03668,25.78824 58.21632,24.68358 58.24872,23.38074 L50.89986,15.7338 C49.72302,14.40954 48.2076,12.03444 44.88678,10.2213 C44.39016,13.78476 42.5727,17.57952 39.78306,19.46934 C34.22286,23.2335 25.90146,19.95282 25.52688,12.99006 C25.38936,10.40274 26.28162,6.41682 27.82944,3.77244 L23.34294,2.49426 C17.05086,1.10322 11.13714,0.37134 5.81382,0.0828 C4.82976,3.6216 4.79142,7.66476 5.65704,11.28366" id="path-7"></path>
        <path d="M5.65704,11.28366 C6.02766,12.8313 6.5646,14.30064 7.2621,15.62112 L13.11282,15.7815 C10.26576,22.34322 5.88636,30.82302 2.07234,38.04966 L2.21958,38.1051 L0.17118,41.97618 C5.73354,46.10718 18.52992,53.9793 32.62356,51.507 C34.29738,51.2145 35.99226,50.77494 37.6929,50.16564 L36.47772,45.47466 L40.69836,33.19038 L41.92308,33.00138 C44.70156,32.2713 45.12564,30.63582 45.6147,27.80586 L45.68364,27.11988 L49.356,31.6179 C53.75862,31.19382 56.59398,29.96694 57.71178,26.72442 C58.03668,25.78824 58.21632,24.68358 58.24872,23.38074 L50.89986,15.7338 C49.72302,14.40954 48.2076,12.03444 44.88678,10.2213 C44.39016,13.78476 42.5727,17.57952 39.78306,19.46934 C34.22286,23.2335 25.90146,19.95282 25.52688,12.99006 C25.38936,10.40274 26.28162,6.41682 27.82944,3.77244 L23.34294,2.49426 C17.05086,1.10322 11.13714,0.37134 5.81382,0.0828 C4.82976,3.6216 4.79142,7.66476 5.65704,11.28366" id="path-9"></path>
        <path d="M5.65704,11.28366 C6.02766,12.8313 6.5646,14.30064 7.2621,15.62112 L13.11282,15.7815 C10.26576,22.34322 5.88636,30.82302 2.07234,38.04966 L2.21958,38.1051 L0.17118,41.97618 C5.73354,46.10718 18.52992,53.9793 32.62356,51.507 C34.29738,51.2145 35.99226,50.77494 37.6929,50.16564 L36.47772,45.47466 L40.69836,33.19038 L41.92308,33.00138 C44.70156,32.2713 45.12564,30.63582 45.6147,27.80586 L45.68364,27.11988 L49.356,31.6179 C53.75862,31.19382 56.59398,29.96694 57.71178,26.72442 C58.03668,25.78824 58.21632,24.68358 58.24872,23.38074 L50.89986,15.7338 C49.72302,14.40954 48.2076,12.03444 44.88678,10.2213 C44.39016,13.78476 42.5727,17.57952 39.78306,19.46934 C34.22286,23.2335 25.90146,19.95282 25.52688,12.99006 C25.38936,10.40274 26.28162,6.41682 27.82944,3.77244 L23.34294,2.49426 C17.05086,1.10322 11.13714,0.37134 5.81382,0.0828 C4.82976,3.6216 4.79142,7.66476 5.65704,11.28366" id="path-11"></path>
        <path d="M5.65704,11.28366 C6.02766,12.8313 6.5646,14.30064 7.2621,15.62112 L13.11282,15.7815 C10.26576,22.34322 5.88636,30.82302 2.07234,38.04966 L2.21958,38.1051 L0.17118,41.97618 C5.73354,46.10718 18.52992,53.9793 32.62356,51.507 C34.29738,51.2145 35.99226,50.77494 37.6929,50.16564 L36.47772,45.47466 L40.69836,33.19038 L41.92308,33.00138 C44.70156,32.2713 45.12564,30.63582 45.6147,27.80586 L45.68364,27.11988 L49.356,31.6179 C53.75862,31.19382 56.59398,29.96694 57.71178,26.72442 C58.03668,25.78824 58.21632,24.68358 58.24872,23.38074 L50.89986,15.7338 C49.72302,14.40954 48.2076,12.03444 44.88678,10.2213 C44.39016,13.78476 42.5727,17.57952 39.78306,19.46934 C34.22286,23.2335 25.90146,19.95282 25.52688,12.99006 C25.38936,10.40274 26.28162,6.41682 27.82944,3.77244 L23.34294,2.49426 C17.05086,1.10322 11.13714,0.37134 5.81382,0.0828 C4.82976,3.6216 4.79142,7.66476 5.65704,11.28366" id="path-13"></path>
        <path d="M5.65704,11.28366 C6.02766,12.8313 6.5646,14.30064 7.2621,15.62112 L13.11282,15.7815 C10.26576,22.34322 5.88636,30.82302 2.07234,38.04966 L2.21958,38.1051 L0.17118,41.97618 C5.73354,46.10718 18.52992,53.9793 32.62356,51.507 C34.29738,51.2145 35.99226,50.77494 37.6929,50.16564 L36.47772,45.47466 L40.69836,33.19038 L41.92308,33.00138 C44.70156,32.2713 45.12564,30.63582 45.6147,27.80586 L45.68364,27.11988 L49.356,31.6179 C53.75862,31.19382 56.59398,29.96694 57.71178,26.72442 C58.03668,25.78824 58.21632,24.68358 58.24872,23.38074 L50.89986,15.7338 C49.72302,14.40954 48.2076,12.03444 44.88678,10.2213 C44.39016,13.78476 42.5727,17.57952 39.78306,19.46934 C34.22286,23.2335 25.90146,19.95282 25.52688,12.99006 C25.38936,10.40274 26.28162,6.41682 27.82944,3.77244 L23.34294,2.49426 C17.05086,1.10322 11.13714,0.37134 5.81382,0.0828 C4.82976,3.6216 4.79142,7.66476 5.65704,11.28366" id="path-15"></path>
        <path d="M5.65704,11.28366 C6.02766,12.8313 6.5646,14.30064 7.2621,15.62112 L13.11282,15.7815 C10.26576,22.34322 5.88636,30.82302 2.07234,38.04966 L2.21958,38.1051 L0.17118,41.97618 C5.73354,46.10718 18.52992,53.9793 32.62356,51.507 C34.29738,51.2145 35.99226,50.77494 37.6929,50.16564 L36.47772,45.47466 L40.69836,33.19038 L41.92308,33.00138 C44.70156,32.2713 45.12564,30.63582 45.6147,27.80586 L45.68364,27.11988 L49.356,31.6179 C53.75862,31.19382 56.59398,29.96694 57.71178,26.72442 C58.03668,25.78824 58.21632,24.68358 58.24872,23.38074 L50.89986,15.7338 C49.72302,14.40954 48.2076,12.03444 44.88678,10.2213 C44.39016,13.78476 42.5727,17.57952 39.78306,19.46934 C34.22286,23.2335 25.90146,19.95282 25.52688,12.99006 C25.38936,10.40274 26.28162,6.41682 27.82944,3.77244 L23.34294,2.49426 C17.05086,1.10322 11.13714,0.37134 5.81382,0.0828 C4.82976,3.6216 4.79142,7.66476 5.65704,11.28366" id="path-17"></path>
        <path d="M2.07234,22.38966 L2.21958,22.4451 L0.17118,26.31618 C2.24532,27.85626 3.8952,29.30832 9.1026,31.7673 C9.23382,31.82922 13.11282,0.1215 13.11282,0.1215 C10.26576,6.68322 5.88636,15.16302 2.07234,22.38966" id="path-19"></path>
        <path d="M2.07234,22.38966 L2.21958,22.4451 L0.17118,26.31618 C2.24532,27.85626 3.8952,29.30832 9.1026,31.7673 C9.23382,31.82922 13.11282,0.1215 13.11282,0.1215 C10.26576,6.68322 5.88636,15.16302 2.07234,22.38966" id="path-21"></path>
        <path d="M2.07234,22.38966 L2.21958,22.4451 L0.17118,26.31618 C2.24532,27.85626 3.8952,29.30832 9.1026,31.7673 C9.23382,31.82922 13.11282,0.1215 13.11282,0.1215 C10.26576,6.68322 5.88636,15.16302 2.07234,22.38966" id="path-23"></path>
        <path d="M2.07234,22.38966 L2.21958,22.4451 L0.17118,26.31618 C2.24532,27.85626 3.8952,29.30832 9.1026,31.7673 C9.23382,31.82922 13.11282,0.1215 13.11282,0.1215 C10.26576,6.68322 5.88636,15.16302 2.07234,22.38966" id="path-25"></path>
        <path d="M2.07234,22.38966 L2.21958,22.4451 L0.17118,26.31618 C2.24532,27.85626 3.8952,29.30832 9.1026,31.7673 C9.23382,31.82922 13.11282,0.1215 13.11282,0.1215 C10.26576,6.68322 5.88636,15.16302 2.07234,22.38966" id="path-27"></path>
        <path d="M2.07234,22.38966 L2.21958,22.4451 L0.17118,26.31618 C2.24532,27.85626 3.8952,29.30832 9.1026,31.7673 C9.23382,31.82922 13.11282,0.1215 13.11282,0.1215 C10.26576,6.68322 5.88636,15.16302 2.07234,22.38966" id="path-29"></path>
        <path d="M2.07234,22.38966 L2.21958,22.4451 L0.17118,26.31618 C2.24532,27.85626 3.8952,29.30832 9.1026,31.7673 C9.23382,31.82922 13.11282,0.1215 13.11282,0.1215 C10.26576,6.68322 5.88636,15.16302 2.07234,22.38966" id="path-31"></path>
        <path d="M2.07234,22.38966 L2.21958,22.4451 L0.17118,26.31618 C2.24532,27.85626 3.8952,29.30832 9.1026,31.7673 C9.23382,31.82922 13.11282,0.1215 13.11282,0.1215 C10.26576,6.68322 5.88636,15.16302 2.07234,22.38966" id="path-33"></path>
        <path d="M2.07234,22.38966 L2.21958,22.4451 L0.17118,26.31618 C2.24532,27.85626 3.8952,29.30832 9.1026,31.7673 C9.23382,31.82922 13.11282,0.1215 13.11282,0.1215 C10.26576,6.68322 5.88636,15.16302 2.07234,22.38966" id="path-35"></path>
    </defs>
    <g id="Errors" stroke="none" stroke-width="1" fill="none" fill-rule="evenodd">
        <g id="404" transform="translate(-565.000000, -270.000000)">
            <g id="illustrations-/-error-404" transform="translate(556.000000, 235.000000)">
                <path d="M335.216337,288.066751 C380.898537,218.701951 309.859557,208.515391 325.329297,159.307711 L330.641817,133.458451 C335.120937,111.663691 329.135937,88.3544112 315.694437,75.2451912 L295.200717,55.2581712 C279.373677,39.8222712 257.882397,41.4602712 243.395097,59.2066512 L237.614577,66.2878512 C191.456457,127.182931 128.744097,44.0866512 128.744097,44.0866512 C111.331977,27.1664712 69.5258971,32.8690512 66.6055771,76.6652112 C65.2969771,96.2900712 60.0699571,115.242091 51.1468171,131.733871 L51.1466371,131.733871 C45.1317571,142.850491 37.3750171,152.393011 30.2950771,162.466711 C-24.6954629,240.709651 45.1009771,288.066751 45.1009771,288.066751 C45.1034971,288.113731 335.216337,288.066751 335.216337,288.066751" id="Fill-1" fill="#E2ECF2"></path>
                <g id="Group-29" stroke-width="1" transform="translate(30.780000, 257.580000)" fill="#B8C6CC">
                    <path d="M4.606002,0.119304 L0.230202,0.119304 C0.199062,0.420804 0.143622,0.714024 0.064962,0.997164 L4.440762,0.997164 C4.471902,0.695664 4.527342,0.402264 4.606002,0.119304" id="Fill-23"></path>
                    <path d="M78.837192,0.119304 L11.998152,0.119304 C12.078252,0.402084 12.139632,0.695484 12.182292,0.997164 L79.110072,0.997164 C78.999912,0.717264 78.908472,0.424044 78.837192,0.119304" id="Fill-25"></path>
                    <path d="M112.6647,0.119304 C112.59828,0.423864 112.50648,0.717084 112.39218,0.997164 L270.53496,0.997164 C270.54468,0.702144 270.57204,0.408384 270.61974,0.119304 L112.6647,0.119304 Z" id="Fill-27"></path>
                </g>
                <g id="Group-38" stroke-width="1" transform="translate(113.580000, 105.840000)">
                    <path d="M187.928442,144.961812 L2.782242,144.961812 C1.297242,144.961812 0.093222,143.757972 0.093222,142.272792 L0.093222,2.815452 C0.093222,1.330452 1.297242,0.126432 2.782242,0.126432 L187.928442,0.126432 C189.413622,0.126432 190.617462,1.330452 190.617462,2.815452 L190.617462,142.272792 C190.617462,143.757972 189.413622,144.961812 187.928442,144.961812" id="Fill-30" fill="#FFFFFF"></path>
                    <polygon id="Fill-32" fill="#E2ECF2" points="180.904212 27.627678 180.904212 137.590938 7.648092 137.590938 8.184852 26.114238"></polygon>
                    <path d="M190.617534,20.189304 L190.617534,2.980944 C190.617534,1.404504 189.339534,0.126504 187.763094,0.126504 L2.947914,0.126504 C1.371294,0.126504 0.093114,1.404504 0.093114,2.980944 L0.093114,20.189304 L190.617534,20.189304 Z" id="Fill-34" fill="#5AB5E2"></path>
                    <path d="M142.775334,15.603534 L39.359034,15.603534 C38.263194,15.603534 37.374894,14.715234 37.374894,13.619574 L37.374894,6.696414 C37.374894,5.600574 38.263194,4.712274 39.359034,4.712274 L142.775334,4.712274 C143.871174,4.712274 144.759294,5.600574 144.759294,6.696414 L144.759294,13.619574 C144.759294,14.715234 143.871174,15.603534 142.775334,15.603534" id="Fill-36" fill="#E2ECF2"></path>
                </g>
                <polygon id="Fill-39" fill="#B8C6CC" points="108.30366 228.6 106.74 251.87976 113.68944 251.87976 115.99488 235.48032"></polygon>
                <polygon id="Fill-40" fill="#FFCE33" points="106.7733 252 106.2 256.5693 116.50338 256.5693 113.72256 252"></polygon>
                <polygon id="Fill-41" fill="#B8C6CC" points="131.58 171.59256 221.19444 171.59256 221.19444 167.58 131.58 167.58"></polygon>
                <polygon id="Fill-42" fill="#B8C6CC" points="131.58 189.59274 221.19444 189.59274 221.19444 185.58 131.58 185.58"></polygon>
                <polygon id="Fill-43" fill="#B8C6CC" points="131.58 207.41256 221.19444 207.41256 221.19444 203.4 131.58 203.4"></polygon>
                <g id="Group-100" stroke-width="1" transform="translate(22.860000, 70.560000)">
                    <path d="M150.691464,43.827138 C150.565464,43.849998 149.073084,44.035398 148.578264,44.096598 C148.501764,44.106138 148.448304,44.113878 148.429224,44.115678 C148.140684,44.150058 147.852144,44.169138 147.567564,44.171118 C142.996824,44.193978 138.913524,40.019058 138.231324,34.414758 C137.509344,28.462878 140.900724,23.152878 145.809504,22.556538 C145.937664,22.541238 147.886524,22.308138 148.014504,22.298598" id="Fill-44" fill="#161F34"></path>
                    <polygon id="Fill-46" fill="#B8C6CC" points="105.334812 158.125032 103.771152 181.404792 110.720412 181.404792 113.025852 165.005352"></polygon>
                    <path d="M147.942954,22.3254 C148.135554,22.2858 148.332114,22.25394 148.530834,22.22766 C153.694854,21.56346 158.499414,25.84674 159.264594,31.79556 C160.005834,37.57266 156.661614,42.795 151.735914,43.69824 C151.591014,43.72416 151.443954,43.7481 151.296894,43.76628 C151.119234,43.78842 150.941754,43.80498 150.766074,43.81758 C145.807794,44.13276 141.301854,39.94092 140.562954,34.19838 C139.829994,28.4787 143.098074,23.3028 147.942954,22.3254" id="Fill-48" fill="#707E82"></path>
                    <polygon id="Fill-50" fill="#FFCE33" points="103.771224 181.404792 103.771224 185.974092 119.233404 185.974092 110.720304 181.404792"></polygon>
                    <path d="M156.80214,32.160006 C157.33332,36.541386 154.6812,40.467906 150.8769,40.930506 C147.0744,41.390946 143.55864,38.215386 143.02566,33.834006 C142.49448,29.452446 145.14642,25.525926 148.9509,25.063506 C152.7552,24.601086 156.26898,27.778626 156.80214,32.160006" id="Fill-52" fill="#FFFFFF"></path>
                    <path d="M153.192654,54.49302 L153.645534,58.2246 C152.521974,59.0616 150.341814,58.626 150.341814,58.626 L150.055254,55.69488 L153.192654,54.49302 Z" id="Fill-54" fill="#707E82"></path>
                    <path d="M152.157132,46.28052 L152.256492,47.08512 L149.057712,48.04992 L148.578192,44.09658 C149.073012,44.03538 150.565392,43.84998 150.691392,43.82712 L150.691392,43.82334 C150.867252,43.81182 151.044912,43.79652 151.222752,43.77564 C151.369812,43.75836 151.516872,43.73532 151.662132,43.71066 L151.885692,43.73928 L152.195292,46.29186 L152.157132,46.28052 Z" id="Fill-56" fill="#707E82"></path>
                    <path d="M149.386464,50.761368 L150.259824,54.514008 L146.438064,55.660428 L131.064264,71.781408 C127.147104,75.507408 123.940944,74.213928 120.153924,70.346628 L111.455964,59.697828 C115.858404,59.273748 118.693944,58.047048 119.811744,54.804528 L126.914004,64.193868 C126.894924,64.136628 146.247084,50.310288 146.247084,50.310288 L147.569364,44.331588 L147.567564,44.171208 C147.852144,44.169228 148.140684,44.150148 148.429224,44.115588 C148.448304,44.113788 148.501764,44.106048 148.578264,44.096688 L149.057784,48.050028 L149.021604,48.061368 L149.386464,50.761368 Z" id="Fill-58" fill="#B8C6CC"></path>
                    <path d="M115.149546,19.564416 L115.145766,19.573956 L102.221406,14.814216 C102.253806,14.858136 98.611866,23.957136 96.103206,30.111876 L93.116646,28.814436 L92.812806,25.592796 L91.158066,28.080756 L85.720086,25.907976 L93.127986,8.573616 C93.127986,8.573616 99.273006,-5.292684 114.559146,2.428776 C123.371586,6.878736 119.341746,21.291696 119.341746,21.291696 L115.149546,19.564416 Z" id="Fill-60" fill="#161F34"></path>
                    <path d="M96.103116,30.111804 C98.611956,23.957244 102.253896,14.858244 102.221316,14.814324 L115.145676,19.573884 C115.017696,20.162484 115.172316,21.565044 115.034976,25.019604 C115.006356,25.711344 113.141196,25.908084 113.083956,25.988364 C112.936896,26.198604 112.533696,27.583884 112.510656,27.641124 C110.147076,33.629364 104.439636,30.858804 104.397696,30.845484 L104.401656,30.820644 L102.681936,36.552924 L105.010956,37.385964 C105.733296,37.666944 106.388856,37.974564 106.986816,38.301264 C106.490016,41.864724 104.672736,45.659484 101.883096,47.549304 C96.322896,51.313464 88.001496,48.032784 87.626916,41.070024 C87.489396,38.482704 88.381836,34.496784 89.929476,31.852404 L90.046116,31.884984 L94.652856,33.640884 C95.044536,32.696964 95.547096,31.476024 96.103116,30.111804" id="Fill-62" fill="#B8C6CC"></path>
                    <path d="M119.811798,54.80451 C118.693998,58.04703 115.858458,59.27373 111.456018,59.69799 L107.783658,55.19997 L107.714718,55.88595 C107.225658,58.71573 106.801578,60.35121 104.023098,61.08129 L102.798378,61.27047 L98.577558,73.55475 L99.792738,78.24555 C98.092278,78.85503 96.397398,79.29459 94.723578,79.58709 C80.629758,82.05939 67.833378,74.18727 62.271198,70.05609 L64.319598,66.18501 L64.172538,66.12957 C67.986378,58.90311 72.365778,50.42313 75.212838,43.86159 L69.362118,43.70103 C68.664798,42.38073 68.127678,40.91121 67.757058,39.36375 C66.891438,35.74467 66.929778,31.70151 67.913838,28.16271 C73.237158,28.45143 79.150878,29.18313 85.443138,30.57417 L89.929458,31.85235 C88.381818,34.49691 87.489558,38.48265 87.626898,41.06997 C88.001478,48.03273 96.322878,51.31341 101.883078,47.54925 C104.672898,45.65943 106.489998,41.86467 106.986798,38.30121 C110.307618,40.11453 111.822858,42.48963 112.999878,43.81371 L120.348558,51.46065 C120.316338,52.76367 120.136698,53.86815 119.811798,54.80451" id="Fill-64" fill="#FFCE33"></path>
                    <path d="M62.14518,69.962472 C61.82802,70.560432 61.5186,71.145252 61.21854,71.710812 L61.21854,71.714592 C61.15338,71.840772 61.0866,71.966952 61.02162,72.092952 L57.30912,72.241992 L54.87462,70.845192 L55.92762,69.589872 L51.54804,64.878012 C51.54804,64.878012 40.70844,48.661272 41.63688,31.548672 C41.70582,30.293172 52.25688,27.312552 67.91382,28.162692 C66.92976,31.701492 66.89142,35.744652 67.75704,39.363732 C59.57712,38.776932 50.86602,38.721492 50.84496,38.708172 C50.81256,38.689092 50.9004,51.265692 54.8118,62.590752 L64.17252,66.129552 C63.47322,67.455432 62.793,68.739552 62.14518,69.962472" id="Fill-66" fill="#B8C6CC"></path>
                    <path d="M113.147046,117.463824 C116.662806,122.324904 118.034766,127.374984 117.165366,134.693244 L112.648266,171.154224 L98.923266,171.328104 L103.476726,135.789984 C104.122566,130.390164 102.653226,125.297784 99.376146,120.960504 L82.768086,99.577224 L74.949066,98.709804 C74.949066,98.709804 87.695766,115.304724 93.538746,123.553404 C96.491106,127.722744 96.571206,131.032224 96.754806,135.556884 C96.838686,137.624184 92.669346,171.154224 92.669346,171.154224 L76.340286,171.154224 C76.340286,171.154224 80.727246,146.140344 80.614566,139.429944 C80.515206,133.395804 78.805026,129.293424 75.124926,124.508844 C68.773446,116.254224 52.639146,101.654244 53.407206,91.412604 C53.745426,86.887944 56.953566,79.938504 61.021566,72.092844 L62.271126,70.056144 C67.833486,74.187144 80.629866,82.059444 94.723506,79.586964 L91.454166,87.938964 L113.147046,117.463824 Z" id="Fill-68" fill="#5AB5E2"></path>
                    <path d="M13.018014,105.963696 C13.018014,105.963696 35.945874,125.386776 43.421814,158.021676" id="Stroke-76" stroke="#394151" stroke-width="2"></path>
                    <path d="M20.279358,111.261222 C19.380258,107.282502 19.326978,95.615622 24.948018,96.695802 C31.065858,97.871382 22.569498,109.574622 20.279358,111.261222" id="Fill-78" fill="#FFCE33"></path>
                    <path d="M18.305334,113.216076 C14.602014,111.505896 3.203514,109.017756 3.085974,114.740496 C2.958174,120.968856 16.177734,115.103556 18.305334,113.216076" id="Fill-80" fill="#FFCE33"></path>
                    <path d="M26.394084,117.669312 C25.424604,113.706972 30.802284,99.076752 35.680284,102.071592 C41.667804,105.747552 28.654164,115.942392 26.394084,117.669312" id="Fill-82" fill="#FFCE33"></path>
                    <path d="M12.86631,105.757506 C8.80533,105.372306 -2.29725,101.787966 0.48015,96.783246 C3.50325,91.336266 11.97729,103.055886 12.86631,105.757506" id="Fill-84" fill="#FFCE33"></path>
                    <path d="M23.270094,120.273174 C19.590894,118.511694 4.168674,120.774654 6.099534,126.163314 C8.469414,132.777234 21.116574,122.130954 23.270094,120.273174" id="Fill-86" fill="#FFCE33"></path>
                    <path d="M31.086918,125.357634 C31.188618,121.279914 40.209498,108.567954 44.133138,112.735494 C48.949038,117.850734 33.720318,124.282674 31.086918,125.357634" id="Fill-88" fill="#FFCE33"></path>
                    <path d="M28.463724,127.414458 C24.457644,126.645858 10.117224,132.754518 13.354344,137.475378 C17.327484,143.269758 26.853084,129.758418 28.463724,127.414458" id="Fill-90" fill="#FFCE33"></path>
                    <path d="M37.050822,134.578944 C37.252062,130.504644 46.580202,118.016784 50.401062,122.278824 C55.090962,127.510164 39.709602,133.568604 37.050822,134.578944" id="Fill-92" fill="#FFCE33"></path>
                    <path d="M33.924546,136.344492 C29.918286,135.576072 15.577866,141.684732 18.814986,146.405412 C22.788126,152.199792 32.313906,138.688632 33.924546,136.344492" id="Fill-94" fill="#FFCE33"></path>
                    <path d="M80.776764,123.374646 C80.776764,123.374646 62.397684,135.181386 53.891784,157.985766" id="Stroke-96" stroke="#394151" stroke-width="2"></path>
                    <polygon id="Fill-98" fill="#B8C6CC" points="153.91107 46.760238 152.19531 46.291878 152.15715 46.280538 152.25651 47.085138 149.05773 48.049938 149.02155 48.061458 149.38641 50.761278 149.90427 54.582858 150.05529 55.694898 153.19269 54.493038 154.83213 53.965638"></polygon>
                </g>
                <g id="Group-128" stroke-width="1" transform="translate(84.960000, 98.640000)">
                    <g id="Group-103">
                        <mask id="mask-2" fill="white">
                            <use xlink:href="#path-1"></use>
                        </mask>
                        <g id="Clip-102"></g>
                        <path d="M37.7775,48.224646 C32.46354,48.224646 27.10656,47.612646 21.83508,46.386486 C11.46492,43.974486 1.83834,39.213126 -5.27202,32.979546 L-4.51638,32.117526 C2.45484,38.229066 11.90556,42.899886 22.09464,45.269946 C33.11118,47.832426 44.50896,47.668806 55.05606,44.797446 L55.3572,45.903546 C49.6773,47.449746 43.75458,48.224646 37.7775,48.224646" id="Fill-101" fill="#FFFFFF" mask="url(#mask-2)"></path>
                    </g>
                    <g id="Group-106">
                        <mask id="mask-4" fill="white">
                            <use xlink:href="#path-3"></use>
                        </mask>
                        <g id="Clip-105"></g>
                        <path d="M39.983202,43.179372 C34.491042,43.179372 28.906182,42.510132 23.373702,41.170752 C13.134402,38.691612 3.460842,33.962292 -3.864978,27.853452 L-3.130758,26.973072 C4.062762,32.971392 13.571442,37.617912 23.643522,40.056192 C34.711182,42.735852 45.990882,42.690312 56.262762,39.924612 L56.561022,41.031432 C51.244542,42.463152 45.663642,43.179372 39.983202,43.179372" id="Fill-104" fill="#FFFFFF" mask="url(#mask-4)"></path>
                    </g>
                    <g id="Group-109">
                        <mask id="mask-6" fill="white">
                            <use xlink:href="#path-5"></use>
                        </mask>
                        <g id="Clip-108"></g>
                        <path d="M42.169212,38.142198 C36.512172,38.142198 30.705912,37.412838 24.912252,35.954838 C14.820912,33.414858 5.100732,28.717398 -2.457648,22.727358 L-1.745568,21.828798 C5.688252,27.720378 15.254892,32.342058 25.192152,34.842978 C36.309492,37.640718 47.470752,37.713258 57.469572,35.051598 L57.764592,36.159498 C52.798212,37.481418 47.551212,38.142198 42.169212,38.142198" id="Fill-107" fill="#FFFFFF" mask="url(#mask-6)"></path>
                    </g>
                    <g id="Group-112">
                        <mask id="mask-8" fill="white">
                            <use xlink:href="#path-7"></use>
                        </mask>
                        <g id="Clip-111"></g>
                        <path d="M44.332902,33.113106 C38.526282,33.113106 32.504742,32.320926 26.450802,30.738906 C16.529562,28.146366 6.762942,23.480766 -1.049958,17.601066 L-0.360558,16.684866 C7.335882,22.476906 16.960482,27.073926 26.740962,29.629566 C37.905462,32.546826 48.949182,32.736906 58.676562,30.178746 L58.968162,31.287546 C54.338022,32.505066 49.417542,33.113106 44.332902,33.113106" id="Fill-110" fill="#FFFFFF" mask="url(#mask-8)"></path>
                    </g>
                    <g id="Group-115">
                        <mask id="mask-10" fill="white">
                            <use xlink:href="#path-9"></use>
                        </mask>
                        <g id="Clip-114"></g>
                        <path d="M46.473048,28.091736 C40.531788,28.091736 34.303428,27.233496 27.989388,25.522776 C18.266508,22.888116 8.453268,18.254016 0.358128,12.474216 L1.024128,11.541276 C9.011448,17.243676 18.694548,21.816396 28.289268,24.416136 C39.500388,27.454176 50.425308,27.761796 59.883408,25.305876 L60.171588,26.415396 C55.864548,27.533916 51.261768,28.091736 46.473048,28.091736" id="Fill-113" fill="#FFFFFF" mask="url(#mask-10)"></path>
                    </g>
                    <g id="Group-118">
                        <mask id="mask-12" fill="white">
                            <use xlink:href="#path-11"></use>
                        </mask>
                        <g id="Clip-117"></g>
                        <path d="M48.58893,23.091642 C31.49901,23.091642 13.95567,15.594822 1.76625,7.347402 L2.40867,6.397902 C17.47395,16.591482 40.80069,25.631262 61.09065,20.433042 L61.37487,21.543642 C57.20535,22.611942 52.91091,23.091642 48.58893,23.091642" id="Fill-116" fill="#FFFFFF" mask="url(#mask-12)"></path>
                    </g>
                    <g id="Group-121">
                        <mask id="mask-14" fill="white">
                            <use xlink:href="#path-13"></use>
                        </mask>
                        <g id="Clip-120"></g>
                        <path d="M50.607594,18.100674 C44.504694,18.100674 37.971234,17.096274 31.066794,15.090714 C19.272654,11.664414 9.389034,6.200514 3.174354,2.220174 L3.792834,1.254654 C9.943794,5.194494 19.724094,10.601874 31.386834,13.989834 C42.845454,17.318574 53.245494,17.847054 62.297694,15.560334 L62.578314,16.671654 C58.806054,17.624394 54.808794,18.100674 50.607594,18.100674" id="Fill-119" fill="#FFFFFF" mask="url(#mask-14)"></path>
                    </g>
                    <g id="Group-124">
                        <mask id="mask-16" fill="white">
                            <use xlink:href="#path-15"></use>
                        </mask>
                        <g id="Clip-123"></g>
                        <path d="M52.65387,13.101462 C46.46853,13.101462 39.76461,12.024882 32.60547,9.874602 C21.26763,6.469182 11.10879,1.044162 4.58307,-2.907378 L5.17689,-3.888018 C11.64573,0.028962 21.71259,5.405742 32.93523,8.776602 C44.43543,12.230622 54.72027,12.873402 63.50481,10.687302 L63.78165,11.799882 C60.29361,12.667842 56.57751,13.101462 52.65387,13.101462" id="Fill-122" fill="#FFFFFF" mask="url(#mask-16)"></path>
                    </g>
                    <g id="Group-127">
                        <mask id="mask-18" fill="white">
                            <use xlink:href="#path-17"></use>
                        </mask>
                        <g id="Clip-126"></g>
                        <path d="M54.60714,8.122104 C41.0886,8.122104 24.79572,2.714364 5.99166,-8.035236 L6.56082,-9.030456 C16.53858,-3.326616 25.93314,0.910764 34.48404,3.563424 C46.02366,7.143624 56.19402,7.901064 64.71216,5.814324 L64.98486,6.927804 C61.73406,7.724304 58.27122,8.122104 54.60714,8.122104" id="Fill-125" fill="#FFFFFF" mask="url(#mask-18)"></path>
                    </g>
                </g>
                <g id="Group-159" stroke-width="1" transform="translate(74.160000, 53.820000)">
                    <path d="M16.606062,44.88552 C12.593502,48.89808 12.784662,55.8747 12.784662,55.8747 L16.606062,56.35008 C14.886342,48.70692 16.606062,44.88552 16.606062,44.88552" id="Fill-129" fill="#707E82"></path>
                    <path d="M14.454486,89.744184 C10.927746,95.799384 8.263206,102.821544 9.681426,109.912464 C10.783206,115.421544 14.093946,120.052224 17.364006,124.485984 C19.777986,127.758744 22.474746,130.780944 25.125786,133.859844 C27.907686,137.090664 30.878226,140.536584 32.609286,144.476604 C34.378326,148.502844 34.394886,153.008604 33.943266,157.307544 C33.553206,161.019144 32.914206,164.711844 32.392926,168.407244 C31.457286,175.042224 30.534786,181.680444 29.681406,188.326764 C29.622006,188.789904 30.244626,188.344764 30.281346,188.057844 C31.009266,182.389104 31.793346,176.727024 32.582466,171.066564 C33.071346,167.559444 33.569046,164.053404 34.086006,160.550244 C34.686666,156.480984 35.156286,152.290044 34.442946,148.202604 C33.721326,144.068364 31.503186,140.590944 28.982826,137.312964 C26.403066,133.957764 23.492646,130.877784 20.795526,127.619604 C18.741906,125.139204 16.812846,122.525964 15.015726,119.852964 C13.490586,117.583884 12.107466,115.198524 11.167686,112.622904 C8.298666,104.758884 10.892286,96.775884 14.936346,89.832564 C15.209046,89.364024 14.655546,89.398764 14.454486,89.744184" id="Fill-131" fill="#161F34"></path>
                    <path d="M23.7375,143.238456 C24.76566,140.457096 25.91874,132.054336 21.76452,132.295716 C17.24346,132.558336 22.24836,141.804216 23.7375,143.238456" id="Fill-133" fill="#FFCE33"></path>
                    <path d="M24.973416,144.835956 C27.805536,143.957376 36.257796,143.253216 35.795736,147.388716 C35.292636,151.889616 26.326476,146.399616 24.973416,144.835956" id="Fill-135" fill="#FFCE33"></path>
                    <path d="M18.718596,147.272292 C19.795716,144.509472 17.318376,133.452252 13.516776,135.144252 C8.850636,137.221272 17.254836,145.811952 18.718596,147.272292" id="Fill-137" fill="#FFCE33"></path>
                    <path d="M29.605788,139.980528 C32.569128,140.090868 40.912848,138.568608 39.389508,134.696628 C37.731348,130.482108 30.504708,138.118428 29.605788,139.980528" id="Fill-139" fill="#FFCE33"></path>
                    <path d="M20.721096,149.447412 C23.540976,148.529412 34.438896,151.633872 32.532516,155.332692 C30.192696,159.872652 22.095756,150.991992 20.721096,149.447412" id="Fill-141" fill="#FFCE33"></path>
                    <path d="M14.601978,152.364672 C14.918238,149.416092 9.632178,139.393332 6.406218,142.021692 C2.446758,145.248012 12.807018,151.338492 14.601978,152.364672" id="Fill-143" fill="#FFCE33"></path>
                    <path d="M16.295796,154.097532 C19.256256,153.926532 29.007396,159.698952 26.223516,162.791712 C22.806576,166.587912 17.232696,155.940732 16.295796,154.097532" id="Fill-145" fill="#FFCE33"></path>
                    <path d="M9.422928,158.440194 C9.667188,155.484954 4.137948,145.594134 0.977148,148.300434 C-2.902392,151.622334 7.603668,157.458114 9.422928,158.440194" id="Fill-147" fill="#FFCE33"></path>
                    <path d="M11.507346,160.011324 C14.467806,159.840504 24.218766,165.612744 21.434886,168.705684 C18.017946,172.501884 12.444066,161.854524 11.507346,160.011324" id="Fill-149" fill="#FFCE33"></path>
                    <polygon id="Fill-151" fill="#5AB5E2" points="30.1725 0.173808 38.19762 13.549248 36.86004 14.886648 27.49752 1.702548"></polygon>
                    <polygon id="Fill-153" fill="#5AB5E2" points="41.173938 1.777986 42.401178 12.020526 41.743998 12.100446 38.961918 2.275866"></polygon>
                    <polygon id="Fill-155" fill="#5AB5E2" points="24.640668 12.498354 33.611868 17.179614 34.162848 16.523694 25.777728 10.492074"></polygon>
                    <path d="M23.867046,60.553782 L19.854306,92.272302 C19.854306,92.272302 15.650766,90.743742 11.064906,86.731182 L23.867046,60.553782" id="Fill-157" fill="#161F34"></path>
                </g>
                <g id="Group-187" stroke-width="1" transform="translate(84.960000, 114.300000)">
                    <g id="Group-162">
                        <mask id="mask-20" fill="white">
                            <use xlink:href="#path-19"></use>
                        </mask>
                        <g id="Clip-161"></g>
                        <path d="M37.7775,32.564646 C32.46354,32.564646 27.10656,31.952646 21.83508,30.726486 C11.46492,28.314486 1.83834,23.553126 -5.27202,17.319546 L-4.51638,16.457526 C2.45484,22.569066 11.90556,27.239886 22.09464,29.609946 C33.11118,32.172426 44.50896,32.008806 55.05606,29.137446 L55.3572,30.243546 C49.6773,31.789746 43.75458,32.564646 37.7775,32.564646" id="Fill-160" fill="#B8C6CC" mask="url(#mask-20)"></path>
                    </g>
                    <g id="Group-165">
                        <mask id="mask-22" fill="white">
                            <use xlink:href="#path-21"></use>
                        </mask>
                        <g id="Clip-164"></g>
                        <path d="M39.983202,27.519372 C34.491042,27.519372 28.906182,26.850132 23.373702,25.510752 C13.134402,23.031612 3.460842,18.302292 -3.864978,12.193452 L-3.130758,11.313072 C4.062762,17.311392 13.571442,21.957912 23.643522,24.396192 C34.711182,27.075852 45.990882,27.030312 56.262762,24.264612 L56.561022,25.371432 C51.244542,26.803152 45.663642,27.519372 39.983202,27.519372" id="Fill-163" fill="#B8C6CC" mask="url(#mask-22)"></path>
                    </g>
                    <g id="Group-168">
                        <mask id="mask-24" fill="white">
                            <use xlink:href="#path-23"></use>
                        </mask>
                        <g id="Clip-167"></g>
                        <path d="M42.169212,22.482198 C36.512172,22.482198 30.705912,21.752838 24.912252,20.294838 C14.820912,17.754858 5.100732,13.057398 -2.457648,7.067358 L-1.745568,6.168798 C5.688252,12.060378 15.254892,16.682058 25.192152,19.182978 C36.309492,21.980718 47.470752,22.053258 57.469572,19.391598 L57.764592,20.499498 C52.798212,21.821418 47.551212,22.482198 42.169212,22.482198" id="Fill-166" fill="#B8C6CC" mask="url(#mask-24)"></path>
                    </g>
                    <g id="Group-171">
                        <mask id="mask-26" fill="white">
                            <use xlink:href="#path-25"></use>
                        </mask>
                        <g id="Clip-170"></g>
                        <path d="M44.332902,17.453106 C38.526282,17.453106 32.504742,16.660926 26.450802,15.078906 C16.529562,12.486366 6.762942,7.820766 -1.049958,1.941066 L-0.360558,1.024866 C7.335882,6.816906 16.960482,11.413926 26.740962,13.969566 C37.905462,16.886826 48.949182,17.076906 58.676562,14.518746 L58.968162,15.627546 C54.338022,16.845066 49.417542,17.453106 44.332902,17.453106" id="Fill-169" fill="#B8C6CC" mask="url(#mask-26)"></path>
                    </g>
                    <g id="Group-174">
                        <mask id="mask-28" fill="white">
                            <use xlink:href="#path-27"></use>
                        </mask>
                        <g id="Clip-173"></g>
                        <path d="M46.473048,12.431736 C40.531788,12.431736 34.303428,11.573496 27.989388,9.862776 C18.266508,7.228116 8.453268,2.594016 0.358128,-3.185784 L1.024128,-4.118724 C9.011448,1.583676 18.694548,6.156396 28.289268,8.756136 C39.500388,11.794176 50.425308,12.101796 59.883408,9.645876 L60.171588,10.755396 C55.864548,11.873916 51.261768,12.431736 46.473048,12.431736" id="Fill-172" fill="#B8C6CC" mask="url(#mask-28)"></path>
                    </g>
                    <g id="Group-177">
                        <mask id="mask-30" fill="white">
                            <use xlink:href="#path-29"></use>
                        </mask>
                        <g id="Clip-176"></g>
                        <path d="M48.58893,7.431642 C31.49901,7.431642 13.95567,-0.065178 1.76625,-8.312598 L2.40867,-9.262098 C17.47395,0.931482 40.80069,9.971262 61.09065,4.773042 L61.37487,5.883642 C57.20535,6.951942 52.91091,7.431642 48.58893,7.431642" id="Fill-175" fill="#B8C6CC" mask="url(#mask-30)"></path>
                    </g>
                    <g id="Group-180">
                        <mask id="mask-32" fill="white">
                            <use xlink:href="#path-31"></use>
                        </mask>
                        <g id="Clip-179"></g>
                        <path d="M50.607594,2.440674 C44.504694,2.440674 37.971234,1.436274 31.066794,-0.569286 C19.272654,-3.995586 9.389034,-9.459486 3.174354,-13.439826 L3.792834,-14.405346 C9.943794,-10.465506 19.724094,-5.058126 31.386834,-1.670166 C42.845454,1.658574 53.245494,2.187054 62.297694,-0.099666 L62.578314,1.011654 C58.806054,1.964394 54.808794,2.440674 50.607594,2.440674" id="Fill-178" fill="#B8C6CC" mask="url(#mask-32)"></path>
                    </g>
                    <g id="Group-183">
                        <mask id="mask-34" fill="white">
                            <use xlink:href="#path-33"></use>
                        </mask>
                        <g id="Clip-182"></g>
                        <path d="M52.65387,-2.558538 C46.46853,-2.558538 39.76461,-3.635118 32.60547,-5.785398 C21.26763,-9.190818 11.10879,-14.615838 4.58307,-18.567378 L5.17689,-19.548018 C11.64573,-15.631038 21.71259,-10.254258 32.93523,-6.883398 C44.43543,-3.429378 54.72027,-2.786598 63.50481,-4.972698 L63.78165,-3.860118 C60.29361,-2.992158 56.57751,-2.558538 52.65387,-2.558538" id="Fill-181" fill="#B8C6CC" mask="url(#mask-34)"></path>
                    </g>
                    <g id="Group-186">
                        <mask id="mask-36" fill="white">
                            <use xlink:href="#path-35"></use>
                        </mask>
                        <g id="Clip-185"></g>
                        <path d="M54.60714,-7.537896 C41.0886,-7.537896 24.79572,-12.945636 5.99166,-23.695236 L6.56082,-24.690456 C16.53858,-18.986616 25.93314,-14.749236 34.48404,-12.096576 C46.02366,-8.516376 56.19402,-7.758936 64.71216,-9.845676 L64.98486,-8.732196 C61.73406,-7.935696 58.27122,-7.537896 54.60714,-7.537896" id="Fill-184" fill="#B8C6CC" mask="url(#mask-36)"></path>
                    </g>
                </g>
                <g id="Group-214" stroke-width="1" transform="translate(48.240000, 72.000000)">
                    <path d="M67.93911,81.735408 L69.27669,78.104808 C69.27669,78.104808 57.62115,79.060248 48.37113,75.048768 C48.29931,75.017448 56.06649,81.484128 67.93911,81.735408" id="Fill-188" fill="#161F34"></path>
                    <path d="M49.607928,97.370982 C48.466728,95.873382 46.806948,94.411242 45.042408,93.707622 C44.999748,93.690702 44.924328,93.799962 44.967888,93.826602 C46.692828,94.884462 48.073428,96.063642 49.512168,97.481862 C49.549788,97.518942 49.636728,97.408782 49.607928,97.370982" id="Fill-190" fill="#161F34"></path>
                    <path d="M57.619332,98.12034 C58.730112,96.73182 59.982372,95.53014 61.299072,94.34178 C61.393032,94.257 61.412472,94.02228 61.235892,94.13136 C59.695812,95.08122 58.420152,96.47604 57.382992,97.94556 C57.200292,98.20422 57.421512,98.36766 57.619332,98.12034" id="Fill-192" fill="#161F34"></path>
                    <path d="M57.501378,98.185734 C58.093758,96.651954 58.781178,95.188734 59.642118,93.786714 C59.715738,93.666654 59.581638,93.637134 59.512698,93.731814 C58.517658,95.099454 57.739338,96.612354 57.238938,98.230014 C57.163878,98.473194 57.448818,98.321814 57.501378,98.185734" id="Fill-194" fill="#161F34"></path>
                    <polygon id="Fill-196" fill="#707E82" points="66.601584 172.378944 58.958604 175.171284 59.376204 169.839864 66.983724 169.821144"></polygon>
                    <polygon id="Fill-198" fill="#707E82" points="86.282406 172.360314 78.639426 175.152834 79.057026 169.821234 86.664546 169.802694"></polygon>
                    <path d="M88.557534,61.29594 C88.557534,61.29594 93.838914,58.94118 94.498614,53.45604 C94.498614,53.45604 93.352194,56.89566 85.900194,58.04208 L88.557534,61.29594 Z" id="Fill-200" fill="#707E82"></path>
                    <path d="M90.103878,1.483542 L87.619878,0.145962 C80.511858,0.709182 76.919778,13.330242 76.919778,13.330242 L78.257358,13.903542 C79.199478,11.631222 83.660778,2.860182 90.103878,1.483542" id="Fill-202" fill="#FFCE33"></path>
                    <polygon id="Fill-204" fill="#707E82" points="33.927714 184.534038 11.189754 184.534038 3.546774 151.095618 41.570694 151.095618"></polygon>
                    <polygon id="Fill-206" fill="#707E82" points="42.406164 155.872746 43.863624 150.331446 0.107244 150.331446 1.564884 155.872746"></polygon>
                    <path d="M5.541336,159.82236 C5.541336,159.82236 22.868676,152.11638 39.576096,159.82236 L40.478976,155.8728 L4.638456,155.8728 L5.541336,159.82236 Z" id="Fill-208" fill="#161F34"></path>
                    <path d="M204.85845,127.44891 C204.85845,125.81091 205.96509,124.65999 207.51453,124.65999 C209.06379,124.65999 210.12633,125.81091 210.12633,127.44891 C210.12633,128.99817 209.10807,130.19355 207.47025,130.19355 C205.92081,130.19355 204.85845,128.99817 204.85845,127.44891 Z M205.83225,121.25133 L205.74369,120.10059 C205.47819,117.71001 206.27505,115.09821 208.48833,112.44231 C210.48021,110.09601 211.58721,108.36963 211.58721,106.37757 C211.58721,104.12001 210.17061,102.61467 207.38169,102.57057 C205.78797,102.57057 204.01731,103.10175 202.91067,103.94289 L201.84813,101.15397 C203.30919,100.09161 205.83225,99.38313 208.17855,99.38313 C213.26931,99.38313 215.57115,102.52629 215.57115,105.89049 C215.57115,108.90081 213.88905,111.06999 211.76415,113.59323 C209.81655,115.89507 209.10807,117.84303 209.24109,120.10059 L209.28519,121.25133 L205.83225,121.25133 Z" id="Fill-210" fill="#B8C6CC"></path>
                    <path d="M208.857474,92.80278 C196.574994,92.80278 186.582114,102.79566 186.582114,115.07796 C186.582114,127.36044 196.574994,137.35332 208.857474,137.35332 C221.139954,137.35332 231.132654,127.36044 231.132654,115.07796 C231.132654,102.79566 221.139954,92.80278 208.857474,92.80278 M208.857474,140.20452 C195.002514,140.20452 183.730914,128.93292 183.730914,115.07796 C183.730914,101.22318 195.002514,89.95158 208.857474,89.95158 C222.712254,89.95158 233.983854,101.22318 233.983854,115.07796 C233.983854,128.93292 222.712254,140.20452 208.857474,140.20452" id="Fill-212" fill="#B8C6CC"></path>
                </g>
            </g>
        </g>
    </g>
</svg>